<svg width="613" height="594" viewBox="0 0 613 594" fill="none" xmlns="http://www.w3.org/2000/svg">
<path fill-rule="evenodd" clip-rule="evenodd" d="M174.977 155.037C199.422 136.883 213.667 118.643 241.459 106.693C273.474 92.9284 308.916 78.179 340.087 87.2183C371.848 96.4289 380.126 137.263 407.278 154.547C439.2 174.867 493.779 157.746 518.149 186.017C541.091 212.631 504.078 257.638 489.712 292.983C475.256 328.55 517.858 382.536 486.358 406.867C463 424.908 407.278 427.375 370.435 438.875C333.592 450.375 321.767 442.051 297.998 450.801C271.683 460.488 245.295 471.38 218.203 471.419C188.568 471.461 158.796 466.155 135.368 451.035C111.18 435.424 94.069 411.296 83.7424 384.639C73.4437 358.054 71.7593 328.192 76.3214 298.611C80.7812 269.693 92.3435 241.366 109.744 216.043C126.602 191.509 150.723 173.049 174.977 155.037Z" fill="#C1A8F5"/>
</svg>
