<svg width="571" height="536" viewBox="0 0 571 536" fill="none" xmlns="http://www.w3.org/2000/svg">
<path fill-rule="evenodd" clip-rule="evenodd" d="M132.018 159.587C153.749 128.829 147.82 79.4089 182.798 61.9709C218.107 44.3682 264.756 60.2702 305.685 73.007C343.18 84.6754 379.695 102.199 405.428 131.252C429.926 158.911 430.99 194.776 443.006 228.043C457.847 269.136 490.599 307.966 484.01 348.824C476.454 395.674 449.63 440.79 405.357 461.5C360.36 482.549 301.634 477.742 251.538 457.571C205.833 439.167 184.053 392.023 148.804 358.198C113.138 323.973 47.835 303.794 44 258.418C40.0814 212.054 106.039 196.356 132.018 159.587Z" fill="#DEEBFE"/>
</svg>
