<svg width="608" height="523" viewBox="0 0 608 523" fill="none" xmlns="http://www.w3.org/2000/svg">
<path fill-rule="evenodd" clip-rule="evenodd" d="M234.02 508.883C165.194 494.226 171.02 418.796 132.275 374.585C110.768 350.043 79.0319 333.353 58.365 308.44C29.8322 274.045 -1.93392 246.764 14.1402 209.026C30.0689 171.63 76.5291 150.954 114.127 123.236C168.804 82.9278 173.494 11.848 251.972 8.68082C326.79 5.66134 351.701 88.2188 387.24 136.942C409.897 168.004 440.653 194.186 470.121 222.126C533.295 282.024 605.327 308.076 593.935 382.099C552 444 472.206 403.711 388.799 429.212C328.928 447.517 297.253 522.348 234.02 508.883Z" fill="#4D39D1"/>
</svg>
