<svg width="482" height="414" viewBox="0 0 482 414" fill="none" xmlns="http://www.w3.org/2000/svg">
<path fill-rule="evenodd" clip-rule="evenodd" d="M247.394 18.1002C289.016 6.35321 340.305 -10.0372 377.73 8.06318C415.596 26.3772 403.246 71.6401 421.974 102.536C438.49 129.783 479.929 148.785 481.189 178.742C482.452 208.746 446.215 230.931 428.507 257.8C409.488 286.659 401.218 318.977 372.886 343.077C337.967 372.78 296.894 425.227 247.394 411.86C188.385 395.926 220.937 307.949 164.809 286.889C102.275 263.425 60.1351 326.892 14.5919 286.889C-26.2789 250.991 30.5154 225.35 41.6829 178.742C49.971 144.151 -15.2005 104.11 14.592 77.1213C46.9923 47.7697 115.335 80.7434 163.278 68.5889C197.809 59.8344 213.273 27.7303 247.394 18.1002Z" fill="#DEEBFE"/>
</svg>
