<svg width="527" height="489" viewBox="0 0 527 489" fill="none" xmlns="http://www.w3.org/2000/svg">
<path fill-rule="evenodd" clip-rule="evenodd" d="M418.623 307.855C401.149 333.935 398.307 368.113 373.715 388.346C345.925 411.211 311.041 429.5 272.317 428.23C232.669 426.929 191.098 409.755 162.621 381.422C135.702 354.638 137.581 315.386 124.674 281.332C112.837 250.102 90.9473 221.775 89.8929 189.535C88.7132 153.462 90.3054 111.822 118.405 89.6443C146.463 67.4992 192.229 85.2509 229.446 79.3935C265.643 73.6964 297.289 44.557 333.7 55.7594C370.186 66.9848 386.418 107.208 411.512 135.409C437.497 164.612 482.147 187.902 483.646 224.273C485.165 261.102 438.637 277.984 418.623 307.855Z" fill="#FB746C"/>
</svg>
