<svg width="619" height="584" viewBox="0 0 619 584" fill="none" xmlns="http://www.w3.org/2000/svg">
<path fill-rule="evenodd" clip-rule="evenodd" d="M101.894 163.39C134.375 120.134 196.719 128.016 247.285 117.212C285.163 109.119 322.171 101.111 359.108 108.434C396.231 115.795 427.702 134.878 456.726 158.738C491.925 187.674 532.813 214.541 544.114 260.525C556.451 310.728 544.211 366.566 519.597 414.572C493.71 465.061 457.105 520.089 404.343 533.128C352.517 545.936 311.485 498.377 264.499 477.615C228.909 461.889 191.097 453.359 162.878 426.431C131.818 396.792 106.88 361.024 96.8132 317.603C85.1528 267.308 69.5959 206.404 101.894 163.39Z" fill="#4D39D1"/>
</svg>
