<svg width="1440" height="315" viewBox="0 0 1440 315" fill="none" xmlns="http://www.w3.org/2000/svg">
<path fill-rule="evenodd" clip-rule="evenodd" d="M1440 110.536L1378.62 136.911C1317.25 163.286 1194.5 216.036 1071.75 216.036C949 216.036 826.25 163.286 703.5 133.143C580.75 103 458 95.4643 335.25 110.536C212.5 125.607 89.75 163.286 28.375 182.125L-33 200.964V314H28.375C89.75 314 212.5 314 335.25 314C458 314 580.75 314 703.5 314C826.25 314 949 314 1071.75 314C1194.5 314 1317.25 314 1378.62 314H1440V110.536Z" fill="#C1A8F5"/>
<path fill-rule="evenodd" clip-rule="evenodd" d="M1440 216L1399.85 198C1358.48 180 1278.18 144 1196.67 150C1115.15 156 1034.85 204 953.333 204C871.817 204 791.517 156 710 144C628.483 132 548.183 156 466.667 150C385.15 144 304.85 108 223.333 84C141.817 60 61.5166 48 20.1499 42L-20 36V324H20.1499C61.5166 324 141.817 324 223.333 324C304.85 324 385.15 324 466.667 324C548.183 324 628.483 324 710 324C791.517 324 871.817 324 953.333 324C1034.85 324 1115.15 324 1196.67 324C1278.18 324 1358.48 324 1399.85 324H1440V216Z" fill="#DEEBFE"/>
<path fill-rule="evenodd" clip-rule="evenodd" d="M1440 231.898L1379.64 203.981C1318.25 176.063 1196.5 120.229 1074.74 106.595C952.992 92.9611 831.24 120.229 709.488 152.691C588.76 185.153 467.008 222.159 345.256 245.532C223.504 268.904 101.752 277.994 40.3644 282.538L-20 287.083V315H40.3644C101.752 315 223.504 315 345.256 315C467.008 315 588.76 315 709.488 315C831.24 315 952.992 315 1074.74 315C1196.5 315 1318.25 315 1379.64 315H1440V231.898Z" fill="#4D39D1"/>
<path fill-rule="evenodd" clip-rule="evenodd" d="M0 70L60 87.5C120 105 240 140 360 175C480 210 600 245 720 262.5C840 280 960 280 1080 233.333C1200 186.667 1320 93.3333 1380 46.6667L1440 0V315H1380C1320 315 1200 315 1080 315C960 315 840 315 720 315C600 315 480 315 360 315C240 315 120 315 60 315H0V70Z" fill="#FB746C"/>
<path fill-rule="evenodd" clip-rule="evenodd" d="M1440 262.338L1380 256.667C1320 250.995 1200 239.248 1080 224.664C960 210.081 840 192.662 720 201.169C600 210.081 480 244.919 360 239.248C240 233.171 120 186.586 60 163.495L0 140V315H60C120 315 240 315 360 315C480 315 600 315 720 315C840 315 960 315 1080 315C1200 315 1320 315 1380 315H1440V262.338Z" fill="#C1A8F5"/>
</svg>
